<svg width="263" height="263" viewBox="0 0 263 263" fill="none" xmlns="http://www.w3.org/2000/svg">
<path d="M253.348 258.606C254.085 258.606 254.822 258.324 255.383 257.763C256.508 256.638 256.508 254.819 255.383 253.694L139.588 137.899C138.463 136.774 136.645 136.774 135.52 137.899C134.395 139.025 134.395 140.843 135.52 141.968L251.314 257.763C251.878 258.324 252.615 258.606 253.348 258.606Z" fill="black"/>
<path d="M32.4573 125.417C33.6658 125.417 34.8455 125.532 36.008 125.699C37.3632 118.468 41.8433 112.345 47.9923 108.78C53.9715 116.774 60.5377 124.963 67.7139 133.35L67.006 161.287H36.4453H10.2036C8.55484 157.963 7.60531 154.231 7.60531 150.272C7.60531 136.544 18.7322 125.417 32.4573 125.417Z" fill="#EB5757"/>
<path d="M192.498 76.4816C187.531 71.5152 180.637 68.7443 173.631 68.9457L128.269 70.0967C120.29 63.2686 112.498 57.0161 104.873 51.27C110.866 42.4968 120.943 36.7334 132.372 36.7334C133.992 36.7334 135.568 36.8888 137.128 37.1132C140.014 21.6703 153.541 9.97949 169.818 9.97949C186.095 9.97949 199.622 21.6703 202.511 37.1075C204.068 36.883 205.647 36.7277 207.267 36.7277C225.651 36.7277 240.553 51.6296 240.553 70.0132C240.553 75.3191 239.278 80.3172 237.071 84.7685H200.784L192.498 76.4816Z" fill="#EB5757"/>
<path d="M69.6336 89.7719C74.7093 89.7719 79.4829 87.7951 83.071 84.2042C86.662 80.6132 88.6416 75.8425 88.6416 70.7668C88.6416 65.6882 86.662 60.9175 83.071 57.3265C79.4829 53.7356 74.7093 51.7588 69.6336 51.7588C64.555 51.7588 59.7814 53.7356 56.1933 57.3265C52.6024 60.9175 50.6256 65.6882 50.6256 70.7668C50.6256 75.8425 52.6024 80.6161 56.1933 84.2042C59.7814 87.7951 64.5579 89.7719 69.6336 89.7719ZM69.6336 57.5136C73.1699 57.5136 76.499 58.8918 79.0024 61.3951C81.5057 63.8985 82.8868 67.2247 82.8868 70.7668C82.8868 74.306 81.5086 77.6322 79.0024 80.1356C76.499 82.6389 73.1728 84.0171 69.6336 84.0171C66.0944 84.0171 62.7653 82.6389 60.262 80.1356C57.7586 77.6322 56.3804 74.306 56.3804 70.7668C56.3804 67.2276 57.7586 63.8985 60.262 61.3951C62.7682 58.8918 66.0944 57.5136 69.6336 57.5136Z" fill="black"/>
<path d="M2.05545 13.95C1.81375 11.3517 2.73163 8.80235 4.57891 6.95507C6.42619 5.10779 8.99282 4.1899 11.5738 4.4316C45.0349 7.56508 84.9702 28.9555 130.721 68.157L176.359 67.0003C183.198 66.796 189.848 69.495 194.665 74.3118L215.514 95.1613C217.828 97.4747 218.708 100.746 217.865 103.909C217.022 107.071 214.634 109.471 211.474 110.328L179.046 119.121L158.743 139.421C157.618 140.546 155.8 140.546 154.675 139.421C153.55 138.296 153.55 136.478 154.675 135.353L173.513 116.514C108.74 49.9691 54.0872 14.1946 11.0358 10.1634C10.1467 10.0943 9.27768 10.3964 8.64753 11.0266C8.01739 11.6567 7.70374 12.5286 7.78719 13.4148C11.8155 56.4633 47.5958 111.119 114.138 175.892L132.979 157.051C134.104 155.926 135.923 155.926 137.048 157.051C138.173 158.176 138.173 159.995 137.048 161.12L116.742 181.422L107.949 213.848C107.094 217.01 104.692 219.398 101.529 220.241C100.741 220.451 99.9441 220.555 99.1557 220.555C96.7962 220.552 94.5202 219.625 92.7851 217.887L71.9385 197.041C67.116 192.218 64.4487 185.549 64.6242 178.735L65.7809 133.097C26.5823 87.3463 5.19179 47.4111 2.05545 13.95ZM178.43 113.326L209.967 104.775C211.633 104.323 212.153 102.982 212.303 102.43C212.45 101.874 212.663 100.45 211.443 99.2328L190.593 78.3833C186.881 74.6743 181.731 72.6285 176.503 72.7551L137.157 73.7507C150.442 85.476 164.208 98.6774 178.43 113.326ZM70.3789 178.882C70.2437 184.124 72.2953 189.26 76.0071 192.972L96.8538 213.819C98.0738 215.039 99.4923 214.826 100.048 214.679C100.603 214.53 101.944 214.009 102.396 212.34L110.947 180.807C96.3013 166.584 83.097 152.821 71.3716 139.536L70.3789 178.882Z" fill="black"/>
<path d="M188.959 227.489C189.695 227.489 190.432 227.207 190.993 226.646C192.118 225.521 192.118 223.703 190.993 222.578L143.959 175.541C142.834 174.416 141.016 174.416 139.891 175.541C138.766 176.666 138.766 178.485 139.891 179.61L186.924 226.646C187.488 227.207 188.225 227.489 188.959 227.489Z" fill="#EB5757"/>
<path d="M235.316 204.459C236.053 204.459 236.789 204.177 237.351 203.616C238.476 202.49 238.476 200.672 237.351 199.547L180.347 142.543C179.222 141.418 177.403 141.418 176.278 142.543C175.153 143.668 175.153 145.487 176.278 146.612L233.282 203.616C233.846 204.179 234.58 204.459 235.316 204.459Z" fill="#EB5757"/>
<path d="M157.776 231.734C158.513 231.734 159.249 231.452 159.811 230.891C160.936 229.766 160.936 227.947 159.811 226.822L134.392 201.4C133.267 200.275 131.448 200.275 130.323 201.4C129.198 202.525 129.198 204.344 130.323 205.469L155.742 230.891C156.303 231.452 157.04 231.734 157.776 231.734Z" fill="#EB5757"/>
<path d="M222.581 156.297C223.317 156.297 224.054 156.015 224.615 155.454C225.74 154.329 225.74 152.51 224.615 151.385L203.829 130.602C202.704 129.477 200.885 129.477 199.76 130.602C198.635 131.727 198.635 133.545 199.76 134.673L220.547 155.456C221.108 156.015 221.844 156.297 222.581 156.297Z" fill="#EB5757"/>
<path d="M203.926 248.578C205.515 248.578 206.804 247.292 206.804 245.701V233.455C206.804 231.863 205.515 230.577 203.926 230.577C202.338 230.577 201.049 231.863 201.049 233.455V245.701C201.049 247.292 202.335 248.578 203.926 248.578Z" fill="#EB5757"/>
<path d="M197.804 242.455H210.047C211.636 242.455 212.925 241.169 212.925 239.578C212.925 237.986 211.636 236.7 210.047 236.7H197.804C196.216 236.7 194.927 237.986 194.927 239.578C194.927 241.169 196.216 242.455 197.804 242.455Z" fill="#EB5757"/>
<path d="M237.569 177.408C239.157 177.408 240.446 176.122 240.446 174.531V162.285C240.446 160.693 239.157 159.407 237.569 159.407C235.981 159.407 234.692 160.693 234.692 162.285V174.531C234.692 176.122 235.978 177.408 237.569 177.408Z" fill="#EB5757"/>
<path d="M231.446 171.285H243.689C245.277 171.285 246.566 169.999 246.566 168.408C246.566 166.816 245.277 165.53 243.689 165.53H231.446C229.857 165.53 228.568 166.816 228.568 168.408C228.568 169.999 229.857 171.285 231.446 171.285Z" fill="#EB5757"/>
<path d="M251.792 227.251C254.246 227.251 256.554 226.293 258.292 224.555C260.027 222.823 260.982 220.512 260.982 218.061C260.982 215.609 260.027 213.299 258.292 211.561C254.707 207.981 248.877 207.981 245.295 211.561C243.557 213.299 242.602 215.606 242.602 218.061C242.602 220.515 243.557 222.82 245.292 224.558C247.03 226.293 249.338 227.251 251.792 227.251ZM251.792 214.625C252.673 214.625 253.55 214.959 254.221 215.629C254.871 216.279 255.228 217.14 255.228 218.061C255.228 218.976 254.871 219.839 254.221 220.489C252.923 221.787 250.658 221.787 249.364 220.489C248.713 219.839 248.356 218.978 248.356 218.061C248.356 217.143 248.713 216.279 249.364 215.629C250.034 214.962 250.914 214.625 251.792 214.625Z" fill="#EB5757"/>
<path d="M172.768 253.029C175.121 253.029 177.475 252.132 179.265 250.342C181.003 248.607 181.958 246.299 181.958 243.842C181.958 241.387 181.003 239.08 179.265 237.345C175.682 233.765 169.853 233.765 166.268 237.345C164.53 239.08 163.574 241.387 163.574 243.842C163.574 246.299 164.53 248.607 166.268 250.342C168.06 252.135 170.414 253.029 172.768 253.029ZM172.768 240.412C173.648 240.412 174.526 240.746 175.196 241.416C175.846 242.067 176.203 242.927 176.203 243.845C176.203 244.763 175.846 245.626 175.196 246.276C173.855 247.614 171.677 247.614 170.339 246.276C169.689 245.626 169.332 244.766 169.332 243.845C169.332 242.93 169.689 242.067 170.339 241.416C171.007 240.749 171.887 240.412 172.768 240.412Z" fill="#EB5757"/>
</svg>
