<svg width="122" height="45" viewBox="0 0 122 45" fill="none" xmlns="http://www.w3.org/2000/svg">
<path d="M120.789 1L106.76 6.07709L111.077 8.8977M120.789 1L111.077 8.8977M120.789 1L117.552 13.9748L113.235 11.0915M120.789 1L113.235 11.0915M111.077 8.8977V13.9748L113.235 11.0915" stroke="#EB5757" stroke-width="1.12824" stroke-linecap="round" stroke-linejoin="round"/>
<path d="M99.7461 38.2322V14.5391H104.602V38.2322H99.7461Z" fill="#EB5757" stroke="#EB5757" stroke-width="1.12824" stroke-linecap="round" stroke-linejoin="round"/>
<path d="M16.6483 18.4868C16.6483 18.4868 16.6483 29.8328 16.6483 37.1028M16.6483 18.4868L31.2173 25.8203L27.4402 39.9234M16.6483 18.4868L7.68268 22.9997M16.6483 37.1028C13.9503 37.667 14.5666 41.2075 12.3315 41.0517C10.25 40.9067 10.6358 37.2478 8.55434 37.1028C6.31923 36.947 6.45467 41.3863 4.23757 41.0517C2.31467 40.7616 1 37.1028 1 37.1028M16.6483 37.1028C18.8067 37.667 18.3393 41.0517 20.4254 41.0517C22.5115 41.0517 22.1212 37.248 24.2026 37.1029C26.4377 36.9471 26.2843 41.2075 28.5194 41.0517C30.6008 40.9067 32.2965 37.1029 32.2965 37.1029M5.31676 39.9234L2.07919 25.8203L7.68268 22.9997M7.68268 22.9997V15.102C7.68268 15.102 12.7125 12.9154 16.1087 12.8456C19.7881 12.7699 25.2818 15.102 25.2818 15.102V22.4356" stroke="#EB5757" stroke-width="1.12824" stroke-linecap="round" stroke-linejoin="round"/>
<path d="M43.0879 15.668H37.1523V38.7969H43.0879V29.2069H44.7067L50.6422 38.7969H57.1174L49.0234 26.9504L57.1174 15.668H50.6422L43.0879 26.3863V15.668Z" fill="#EB5757" stroke="#EB5757" stroke-width="1.12824" stroke-linecap="round" stroke-linejoin="round"/>
<path d="M76.851 32.3359H65.5025C65.576 33.5479 66.035 34.4753 66.8798 35.118C67.7337 35.7607 68.9869 36.0821 70.6396 36.0821C71.6864 36.0821 72.7009 35.8938 73.6834 35.5174C74.6658 35.1409 75.4417 34.7369 76.0109 34.3054H76.5618V38.2857C75.4417 38.7356 74.3858 39.0615 73.3941 39.2635C72.4025 39.4655 71.3053 39.5665 70.1025 39.5665C66.9991 39.5665 64.6211 38.8687 62.9684 37.4731C61.3157 36.0775 60.4893 34.0896 60.4893 31.5096C60.4893 28.9571 61.2698 26.9371 62.8306 25.4497C64.4007 23.9531 66.5492 23.2048 69.2762 23.2048C71.7919 23.2048 73.6834 23.8429 74.9504 25.1192C76.2175 26.3862 76.851 28.2134 76.851 30.6006V32.3359ZM71.9205 29.4299C71.8929 28.3924 71.6359 27.612 71.1492 27.0886C70.6626 26.5653 69.9051 26.3036 68.8768 26.3036C67.9219 26.3036 67.1368 26.5515 66.5217 27.0473C65.9065 27.5431 65.5622 28.3373 65.4887 29.4299H71.9205Z" fill="#EB5757"/>
<path d="M95.1948 32.3359H83.8463C83.9197 33.5479 84.3788 34.4753 85.2235 35.118C86.0774 35.7607 87.3307 36.0821 88.9834 36.0821C90.0301 36.0821 91.0447 35.8938 92.0271 35.5174C93.0096 35.1409 93.7854 34.7369 94.3547 34.3054H94.9056V38.2857C93.7854 38.7356 92.7295 39.0615 91.7379 39.2635C90.7463 39.4655 89.6491 39.5665 88.4463 39.5665C85.3429 39.5665 82.9648 38.8687 81.3121 37.4731C79.6594 36.0775 78.8331 34.0896 78.8331 31.5096C78.8331 28.9571 79.6135 26.9371 81.1744 25.4497C82.7445 23.9531 84.893 23.2048 87.6199 23.2048C90.1357 23.2048 92.0271 23.8429 93.2942 25.1192C94.5613 26.3862 95.1948 28.2134 95.1948 30.6006V32.3359ZM90.2642 29.4299C90.2367 28.3924 89.9796 27.612 89.493 27.0886C89.0064 26.5653 88.2489 26.3036 87.2205 26.3036C86.2656 26.3036 85.4806 26.5515 84.8654 27.0473C84.2503 27.5431 83.9059 28.3373 83.8325 29.4299H90.2642Z" fill="#EB5757"/>
</svg>
