<svg width="346" height="174" viewBox="0 0 346 174" fill="none" xmlns="http://www.w3.org/2000/svg">
<path d="M342.815 3L285.814 22.7311L303.353 33.6928M342.815 3L303.353 33.6928M342.815 3L329.661 53.4239L312.122 42.2186M342.815 3L312.122 42.2186M303.353 33.6928V53.4239L312.122 42.2186" stroke="#EB5757" stroke-width="4.38468" stroke-linecap="round" stroke-linejoin="round"/>
<path d="M257.314 147.699V55.6211H277.046V147.699H257.314Z" fill="#EB5757" stroke="#EB5757" stroke-width="4.38468" stroke-linecap="round" stroke-linejoin="round"/>
<path d="M27.1158 60.0078H3V149.894H27.1158V112.624H33.6928L57.8086 149.894H84.1167L51.2315 103.855L84.1167 60.0078H57.8086L27.1158 101.662V60.0078Z" fill="#EB5757" stroke="#EB5757" stroke-width="4.38468" stroke-linecap="round" stroke-linejoin="round"/>
<path d="M161.185 125.965H117.081C117.366 130.675 119.151 134.279 122.433 136.776C125.752 139.274 130.623 140.523 137.045 140.523C141.113 140.523 145.056 139.792 148.874 138.329C152.692 136.866 155.707 135.296 157.92 133.619H160.061V149.087C155.707 150.835 151.604 152.102 147.75 152.887C143.897 153.672 139.632 154.065 134.958 154.065C122.897 154.065 113.655 151.353 107.233 145.929C100.81 140.505 97.5983 132.78 97.5983 122.753C97.5983 112.833 100.631 104.983 106.697 99.2026C112.799 93.3864 121.149 90.4782 131.747 90.4782C141.524 90.4782 148.874 92.9582 153.798 97.918C158.723 102.842 161.185 109.943 161.185 119.221V125.965ZM142.023 114.671C141.916 110.639 140.917 107.606 139.026 105.572C137.135 103.538 134.191 102.521 130.194 102.521C126.483 102.521 123.433 103.485 121.042 105.411C118.651 107.338 117.313 110.425 117.027 114.671H142.023Z" fill="#EB5757"/>
<path d="M235.722 125.965H191.619C191.904 130.675 193.688 134.279 196.971 136.776C200.29 139.274 205.16 140.523 211.583 140.523C215.651 140.523 219.594 139.792 223.412 138.329C227.23 136.866 230.245 135.296 232.457 133.619H234.598V149.087C230.245 150.835 226.142 152.102 222.288 152.887C218.434 153.672 214.17 154.065 209.496 154.065C197.435 154.065 188.193 151.353 181.77 145.929C175.347 140.505 172.136 132.78 172.136 122.753C172.136 112.833 175.169 104.983 181.235 99.2026C187.337 93.3864 195.686 90.4782 206.284 90.4782C216.061 90.4782 223.412 92.9582 228.336 97.918C233.26 102.842 235.722 109.943 235.722 119.221V125.965ZM216.561 114.671C216.454 110.639 215.455 107.606 213.563 105.572C211.672 103.538 208.728 102.521 204.732 102.521C201.021 102.521 197.97 103.485 195.579 105.411C193.189 107.338 191.851 110.425 191.565 114.671H216.561Z" fill="#EB5757"/>
</svg>
