<svg width="682" height="241" viewBox="0 0 682 241" fill="none" xmlns="http://www.w3.org/2000/svg">
<path d="M678.553 4L599.551 31.3468L623.859 46.5395M678.553 4L623.859 46.5395M678.553 4L660.321 73.8863L636.013 58.356M678.553 4L636.013 58.356M623.859 46.5395V73.8863L636.013 58.356" stroke="#EB5757" stroke-width="6.07707" stroke-linecap="round" stroke-linejoin="round"/>
<path d="M560.05 204.543V76.9243H587.396V204.543H560.05Z" fill="#EB5757" stroke="#EB5757" stroke-width="6.07707" stroke-linecap="round" stroke-linejoin="round"/>
<path d="M92.1175 98.1914C92.1175 98.1914 92.1175 159.305 92.1175 198.463M92.1175 98.1914L174.158 137.692L152.888 213.656M92.1175 98.1914L41.6311 122.5M92.1175 198.463C76.9248 201.502 80.3954 220.573 67.8092 219.733C56.0881 218.952 58.2606 199.244 46.5395 198.463C33.9533 197.624 34.716 221.535 22.2312 219.733C11.4031 218.171 4 198.463 4 198.463M92.1175 198.463C104.272 201.502 101.64 219.733 113.387 219.733C125.134 219.733 122.936 199.245 134.657 198.464C147.243 197.625 146.379 220.573 158.965 219.733C170.686 218.952 180.235 198.464 180.235 198.464M28.3083 213.656L10.0771 137.692L41.6311 122.5M41.6311 122.5V79.9602C41.6311 79.9602 69.9548 68.1824 89.079 67.8061C109.798 67.3984 140.734 79.9602 140.734 79.9602V119.461" stroke="#EB5757" stroke-width="6.07707" stroke-linecap="round" stroke-linejoin="round"/>
<path d="M241 83.0032H207.576V207.583H241V155.928H250.115L283.539 207.583H320.002L274.424 143.774L320.002 83.0032H283.539L241 140.735V83.0032Z" fill="#EB5757" stroke="#EB5757" stroke-width="6.07707" stroke-linecap="round" stroke-linejoin="round"/>
<path d="M426.817 174.967H365.691C366.086 181.495 368.559 186.49 373.109 189.952C377.708 193.414 384.459 195.145 393.361 195.145C398.999 195.145 404.464 194.131 409.755 192.104C415.047 190.076 419.226 187.9 422.292 185.575H425.26V207.014C419.226 209.438 413.539 211.193 408.197 212.281C402.856 213.369 396.946 213.913 390.468 213.913C373.752 213.913 360.943 210.155 352.041 202.638C343.139 195.12 338.688 184.413 338.688 170.516C338.688 156.768 342.892 145.888 351.299 137.876C359.756 129.815 371.329 125.784 386.017 125.784C399.567 125.784 409.755 129.221 416.58 136.095C423.405 142.92 426.817 152.762 426.817 165.62V174.967ZM400.26 159.315C400.112 153.726 398.727 149.523 396.106 146.704C393.484 143.885 389.404 142.475 383.865 142.475C378.722 142.475 374.494 143.81 371.18 146.481C367.867 149.152 366.012 153.43 365.616 159.315H400.26Z" fill="#EB5757"/>
<path d="M530.124 174.967H468.997C469.393 181.495 471.866 186.49 476.415 189.952C481.015 193.414 487.765 195.145 496.667 195.145C502.305 195.145 507.77 194.131 513.062 192.104C518.354 190.076 522.532 187.9 525.599 185.575H528.566V207.014C522.532 209.438 516.845 211.193 511.504 212.281C506.163 213.369 500.253 213.913 493.774 213.913C477.058 213.913 464.249 210.155 455.347 202.638C446.446 195.12 441.995 184.413 441.995 170.516C441.995 156.768 446.198 145.888 454.606 137.876C463.062 129.815 474.635 125.784 489.323 125.784C502.874 125.784 513.062 129.221 519.887 136.095C526.711 142.92 530.124 152.762 530.124 165.62V174.967ZM503.566 159.315C503.418 153.726 502.033 149.523 499.412 146.704C496.791 143.885 492.711 142.475 487.172 142.475C482.029 142.475 477.8 143.81 474.487 146.481C471.173 149.152 469.319 153.43 468.923 159.315H503.566Z" fill="#EB5757"/>
</svg>
