<svg width="27" height="18" viewBox="0 0 27 18" fill="none" xmlns="http://www.w3.org/2000/svg">
<path d="M1.42522 0H24.6748C25.4607 0.00421151 26.1 0.642255 26.1 1.42139V16.5786C26.1 17.3598 25.4543 18 24.6663 18H1.42522C0.641455 17.9958 0 17.3577 0 16.5786V1.42139C0 0.642255 0.639331 0.00421151 1.42522 0Z" fill="#FF9933"/>
<path d="M0 5.99927H26.1V12.0007H0V5.99927Z" fill="white"/>
<path d="M0 12.0007H26.1V16.5786C26.1 17.3599 25.4543 18 24.6663 18H1.42522C0.641455 17.9958 0 17.3578 0 16.5786V12.0007Z" fill="#128807"/>
<path d="M15.4697 9.00017C15.4697 7.67355 14.3865 6.59961 13.0483 6.59961C11.7102 6.59961 10.627 7.67355 10.627 9.00017C10.627 10.3247 11.7102 11.4007 13.0483 11.4007C14.3865 11.4007 15.4697 10.3268 15.4697 9.00017Z" fill="#000088"/>
<path d="M15.1669 8.99983C15.1669 7.83956 14.2196 6.90039 13.0493 6.90039C11.879 6.90039 10.9316 7.83956 10.9316 8.99983C10.9316 10.1601 11.879 11.0993 13.0493 11.0993C14.2196 11.0993 15.1669 10.1601 15.1669 8.99983Z" fill="white"/>
<path d="M13.4723 9.00001C13.4723 8.76838 13.2833 8.57886 13.0496 8.57886C12.816 8.57886 12.627 8.76627 12.627 9.00001C12.627 9.23164 12.816 9.41905 13.0496 9.41905C13.2833 9.41905 13.4723 9.23164 13.4723 9.00001Z" fill="#000088"/>
<path d="M15.2543 9.28843C15.2628 9.23158 15.2203 9.17893 15.163 9.17051C15.1056 9.16209 15.0525 9.2042 15.0441 9.26106C15.0356 9.31791 15.078 9.37056 15.1354 9.37898C15.1949 9.3853 15.248 9.34529 15.2543 9.28843Z" fill="#000088"/>
<path d="M13.0507 11.0996L13.1229 9.84037L13.0507 9.24023L12.9785 9.84037L13.0507 11.0996Z" fill="#000088"/>
<path d="M15.1042 9.84439C15.1275 9.79175 15.0999 9.72857 15.0468 9.70751C14.9937 9.68435 14.93 9.71173 14.9088 9.76437C14.8854 9.81701 14.913 9.88019 14.9661 9.90124C15.0213 9.9223 15.0829 9.89703 15.1042 9.84439Z" fill="black"/>
<path d="M12.502 11.0279L12.9013 9.82972L12.9884 9.23169L12.7611 9.79393L12.502 11.0279Z" fill="black"/>
<path d="M14.8152 10.3434C14.8513 10.2971 14.8428 10.2318 14.796 10.196C14.7493 10.1602 14.6835 10.1686 14.6474 10.215C14.6113 10.2613 14.6198 10.3266 14.6665 10.3624C14.7132 10.3982 14.7791 10.3876 14.8152 10.3434Z" fill="black"/>
<path d="M11.9902 10.8194L12.689 9.76442L12.9291 9.2085L12.5637 9.69071L11.9902 10.8194Z" fill="black"/>
<path d="M14.4035 10.7498C14.4502 10.714 14.4587 10.6487 14.4226 10.6024C14.3865 10.5561 14.3206 10.5477 14.2739 10.5835C14.2272 10.6192 14.2187 10.6845 14.2548 10.7309C14.2909 10.7751 14.3589 10.7856 14.4035 10.7498Z" fill="black"/>
<path d="M11.5527 10.4846L12.5022 9.64445L12.8781 9.17065L12.4002 9.54337L11.5527 10.4846Z" fill="black"/>
<path d="M13.9003 11.0385C13.9534 11.0153 13.981 10.9542 13.9577 10.9016C13.9343 10.8489 13.8727 10.8216 13.8196 10.8447C13.7665 10.8658 13.7389 10.929 13.7623 10.9816C13.7835 11.0342 13.8451 11.0595 13.9003 11.0385Z" fill="black"/>
<path d="M11.2148 10.0506L12.3533 9.48206L12.8397 9.11987L12.279 9.35782L11.2148 10.0506Z" fill="black"/>
<path d="M13.3423 11.1857C13.3996 11.1773 13.44 11.1246 13.4336 11.0678C13.4251 11.0109 13.372 10.9709 13.3147 10.9772C13.2573 10.9856 13.2169 11.0383 13.2233 11.0951C13.2297 11.1541 13.2828 11.1941 13.3423 11.1857Z" fill="black"/>
<path d="M11.0059 9.5431L12.2527 9.2862L12.8177 9.06299L12.2144 9.14722L11.0059 9.5431Z" fill="black"/>
<path d="M12.758 11.1859C12.8154 11.1943 12.8685 11.1522 12.877 11.0953C12.8855 11.0385 12.843 10.9858 12.7856 10.9774C12.7283 10.969 12.6752 11.0111 12.6667 11.0679C12.6603 11.1269 12.7007 11.1795 12.758 11.1859Z" fill="black"/>
<path d="M10.9316 9.00006L12.2018 9.07166L12.8072 9.00006L12.2018 8.92847L10.9316 9.00006Z" fill="black"/>
<path d="M12.1976 11.0385C12.2507 11.0616 12.3145 11.0342 12.3357 10.9816C12.3569 10.929 12.3315 10.8658 12.2784 10.8447C12.2253 10.8216 12.1615 10.8489 12.1403 10.9016C12.1191 10.9542 12.1445 11.0153 12.1976 11.0385Z" fill="black"/>
<path d="M11.0059 8.45654L12.2144 8.85243L12.8177 8.93876L12.2527 8.71345L11.0059 8.45654Z" fill="black"/>
<path d="M11.6942 10.7498C11.741 10.7856 11.8068 10.7772 11.8429 10.7309C11.879 10.6845 11.8705 10.6192 11.8238 10.5835C11.7771 10.5477 11.7112 10.5561 11.6751 10.6024C11.6411 10.6487 11.6496 10.714 11.6942 10.7498Z" fill="black"/>
<path d="M11.2148 7.94922L12.279 8.64201L12.8397 8.87996L12.3533 8.51777L11.2148 7.94922Z" fill="black"/>
<path d="M11.2834 10.3434C11.3196 10.3897 11.3854 10.3982 11.4321 10.3624C11.4789 10.3266 11.4874 10.2613 11.4512 10.215C11.4151 10.1686 11.3493 10.1602 11.3026 10.196C11.258 10.2297 11.2473 10.2971 11.2834 10.3434Z" fill="black"/>
<path d="M11.5527 7.51538L12.4002 8.45665L12.8781 8.83148L12.5022 8.35558L11.5527 7.51538Z" fill="black"/>
<path d="M10.9938 9.84439C11.0172 9.89703 11.0788 9.92441 11.1319 9.90124C11.185 9.87808 11.2126 9.81701 11.1892 9.76437C11.1659 9.71173 11.1043 9.68435 11.0512 9.70751C10.9981 9.72857 10.9726 9.78964 10.9938 9.84439Z" fill="black"/>
<path d="M11.9902 7.18066L12.5637 8.30935L12.9291 8.79157L12.689 8.23775L11.9902 7.18066Z" fill="black"/>
<path d="M10.8449 9.28874C10.8534 9.3456 10.9065 9.38561 10.9638 9.37929C11.0212 9.37087 11.0615 9.31822 11.0552 9.26137C11.0467 9.20451 10.9936 9.1645 10.9362 9.17082C10.8767 9.17714 10.8364 9.22978 10.8449 9.28874Z" fill="black"/>
<path d="M12.502 6.97217L12.7611 8.20825L12.9884 8.76838L12.9013 8.17034L12.502 6.97217Z" fill="black"/>
<path d="M10.8448 8.71156C10.8363 8.76842 10.8788 8.82106 10.9362 8.82949C10.9935 8.83791 11.0466 8.7958 11.0551 8.73894C11.0636 8.68208 11.0211 8.62944 10.9638 8.62102C10.9043 8.6147 10.8512 8.65471 10.8448 8.71156Z" fill="black"/>
<path d="M13.0507 6.90039L12.9785 8.15963L13.0507 8.75977L13.1229 8.15963L13.0507 6.90039Z" fill="black"/>
<path d="M10.9966 8.15558C10.9733 8.20823 11.0009 8.2714 11.054 8.29246C11.1071 8.31351 11.1708 8.28825 11.1921 8.2356C11.2154 8.18296 11.1878 8.11978 11.1347 8.09873C11.0795 8.07767 11.0179 8.10294 10.9966 8.15558Z" fill="black"/>
<path d="M13.5977 6.97217L13.1984 8.17034L13.1113 8.76838L13.3386 8.20825L13.5977 6.97217Z" fill="black"/>
<path d="M11.2841 7.65856C11.248 7.70488 11.2565 7.77016 11.3032 7.80596C11.3499 7.84176 11.4158 7.83333 11.4519 7.78701C11.488 7.74068 11.4795 7.6754 11.4328 7.6396C11.386 7.60381 11.3202 7.61223 11.2841 7.65856Z" fill="black"/>
<path d="M14.1107 7.18066L13.4119 8.23775L13.1719 8.79157L13.5372 8.30935L14.1107 7.18066Z" fill="black"/>
<path d="M11.6958 7.25004C11.649 7.28584 11.6406 7.35112 11.6767 7.39744C11.7128 7.44377 11.7786 7.45219 11.8253 7.41639C11.8721 7.3806 11.8806 7.31532 11.8445 7.26899C11.8084 7.22266 11.7404 7.21635 11.6958 7.25004Z" fill="black"/>
<path d="M14.548 7.51538L13.5986 8.35558L13.2227 8.83148L13.7006 8.45665L14.548 7.51538Z" fill="black"/>
<path d="M12.1976 6.96391C12.1445 6.98707 12.1191 7.04814 12.1403 7.10078C12.1637 7.15343 12.2253 7.1808 12.2784 7.15764C12.3315 7.13448 12.3591 7.07341 12.3357 7.02077C12.3145 6.96602 12.2529 6.94075 12.1976 6.96391Z" fill="black"/>
<path d="M14.8846 7.94922L13.7462 8.51777L13.2598 8.87996L13.8205 8.64201L14.8846 7.94922Z" fill="black"/>
<path d="M12.758 6.81406C12.7007 6.82249 12.6603 6.87513 12.6667 6.93198C12.6752 6.98884 12.7283 7.02885 12.7856 7.02253C12.843 7.01411 12.8855 6.96147 12.877 6.90461C12.8706 6.84775 12.8175 6.80564 12.758 6.81406Z" fill="black"/>
<path d="M15.095 8.45654L13.8482 8.71345L13.2832 8.93876L13.8864 8.85243L15.095 8.45654Z" fill="black"/>
<path d="M13.3427 6.81406C13.2853 6.80564 13.2322 6.84775 13.2237 6.90461C13.2152 6.96147 13.2577 7.01411 13.3151 7.02253C13.3724 7.03096 13.4255 6.98884 13.434 6.93198C13.4404 6.87513 13.4 6.82038 13.3427 6.81406Z" fill="black"/>
<path d="M15.1685 9.00006L13.8983 8.92847L13.293 9.00006L13.8983 9.07166L15.1685 9.00006Z" fill="black"/>
<path d="M13.9003 6.96386C13.8472 6.9407 13.7835 6.96807 13.7623 7.02072C13.7389 7.07336 13.7665 7.13653 13.8196 7.15759C13.8727 7.17865 13.9364 7.15338 13.9577 7.10074C13.9789 7.04599 13.9534 6.98492 13.9003 6.96386Z" fill="black"/>
<path d="M15.095 9.5431L13.8864 9.14722L13.2832 9.06299L13.8482 9.2862L15.095 9.5431Z" fill="black"/>
<path d="M14.4035 7.2502C14.3567 7.2144 14.2909 7.22283 14.2548 7.26915C14.2187 7.31548 14.2272 7.38076 14.2739 7.41655C14.3206 7.45235 14.3865 7.44393 14.4226 7.3976C14.4587 7.35128 14.4502 7.286 14.4035 7.2502Z" fill="black"/>
<path d="M14.8846 10.0506L13.8205 9.35782L13.2598 9.11987L13.7462 9.48206L14.8846 10.0506Z" fill="black"/>
<path d="M14.8152 7.65856C14.7791 7.61223 14.7132 7.60381 14.6665 7.6396C14.6198 7.6754 14.6113 7.74068 14.6474 7.78701C14.6835 7.83333 14.7493 7.84176 14.796 7.80596C14.8407 7.77016 14.8513 7.70278 14.8152 7.65856Z" fill="black"/>
<path d="M14.548 10.4846L13.7006 9.54337L13.2227 9.17065L13.5986 9.64445L14.548 10.4846Z" fill="black"/>
<path d="M15.1061 8.15573C15.0828 8.10308 15.0212 8.07571 14.9681 8.09887C14.915 8.12204 14.8873 8.1831 14.9107 8.23575C14.9341 8.28839 14.9957 8.31366 15.0488 8.2926C15.1019 8.27154 15.1274 8.21048 15.1061 8.15573Z" fill="black"/>
<path d="M14.1107 10.8194L13.5372 9.69071L13.1719 9.2085L13.4119 9.76442L14.1107 10.8194Z" fill="black"/>
<path d="M15.2539 8.71156C15.2454 8.65471 15.1923 8.6147 15.135 8.62102C15.0776 8.62944 15.0373 8.68208 15.0436 8.73894C15.0521 8.7958 15.1052 8.8358 15.1626 8.82949C15.222 8.82317 15.2624 8.77053 15.2539 8.71156Z" fill="black"/>
<path d="M13.5977 11.0279L13.3386 9.79393L13.1113 9.23169L13.1984 9.82972L13.5977 11.0279Z" fill="black"/>
</svg>
