<svg width="18" height="17" viewBox="0 0 18 17" fill="none" xmlns="http://www.w3.org/2000/svg">
<path d="M8.98665 4.13481C6.58114 4.13481 4.64085 6.04478 4.64085 8.4127C4.64085 10.7806 6.58114 12.6906 8.98665 12.6906C11.3922 12.6906 13.3324 10.7806 13.3324 8.4127C13.3324 6.04478 11.3922 4.13481 8.98665 4.13481ZM8.98665 11.1939C7.43215 11.1939 6.16131 9.94663 6.16131 8.4127C6.16131 6.87876 7.42836 5.63151 8.98665 5.63151C10.5449 5.63151 11.812 6.87876 11.812 8.4127C11.812 9.94663 10.5411 11.1939 8.98665 11.1939ZM14.5238 3.95982C14.5238 4.51457 14.07 4.95762 13.5102 4.95762C12.9467 4.95762 12.4966 4.51085 12.4966 3.95982C12.4966 3.4088 12.9504 2.96202 13.5102 2.96202C14.07 2.96202 14.5238 3.4088 14.5238 3.95982ZM17.4021 4.97252C17.3378 3.63591 17.0277 2.45195 16.033 1.47649C15.042 0.501022 13.8393 0.195724 12.4814 0.128708C11.082 0.0505219 6.8875 0.0505219 5.48808 0.128708C4.13403 0.192001 2.93128 0.497299 1.93655 1.47276C0.941825 2.44823 0.635463 3.63218 0.567383 4.96879C0.487956 6.34636 0.487956 10.4753 0.567383 11.8529C0.631681 13.1895 0.941825 14.3735 1.93655 15.3489C2.93128 16.3244 4.13025 16.6297 5.48808 16.6967C6.8875 16.7749 11.082 16.7749 12.4814 16.6967C13.8393 16.6334 15.042 16.3281 16.033 15.3489C17.0239 14.3735 17.334 13.1895 17.4021 11.8529C17.4816 10.4753 17.4816 6.35008 17.4021 4.97252ZM15.5942 13.331C15.2992 14.0607 14.7281 14.6229 13.983 14.917C12.8672 15.3526 10.2197 15.2521 8.98665 15.2521C7.75364 15.2521 5.10229 15.3489 3.99031 14.917C3.24899 14.6266 2.67787 14.0644 2.37908 13.331C1.93655 12.2326 2.03867 9.62644 2.03867 8.4127C2.03867 7.19896 1.94034 4.58903 2.37908 3.49443C2.67409 2.76469 3.24521 2.2025 3.99031 1.90837C5.10607 1.47276 7.75364 1.57329 8.98665 1.57329C10.2197 1.57329 12.871 1.47649 13.983 1.90837C14.7243 2.19877 15.2954 2.76097 15.5942 3.49443C16.0367 4.59276 15.9346 7.19896 15.9346 8.4127C15.9346 9.62644 16.0367 12.2364 15.5942 13.331Z" fill="url(#paint0_linear_545_2097)"/>
<defs>
<linearGradient id="paint0_linear_545_2097" x1="0.778209" y1="8.25531" x2="14.8524" y2="8.25531" gradientUnits="userSpaceOnUse">
<stop stop-color="#C18BBD"/>
<stop offset="1" stop-color="#2F7CDE"/>
</linearGradient>
</defs>
</svg>
