<svg width="62" height="22" viewBox="0 0 62 22" fill="none" xmlns="http://www.w3.org/2000/svg">
<path d="M60.8947 1L53.88 3.53855L56.0384 4.94885M60.8947 1L56.0384 4.94885M60.8947 1L59.276 7.4874L57.1176 6.04575M60.8947 1L57.1176 6.04575M56.0384 4.94885V7.4874L57.1176 6.04575" stroke="white" stroke-width="0.564121" stroke-linecap="round" stroke-linejoin="round"/>
<path d="M50.3728 19.616V7.76941H52.801V19.616H50.3728Z" fill="white" stroke="white" stroke-width="0.564121" stroke-linecap="round" stroke-linejoin="round"/>
<path d="M8.82413 9.74351C8.82413 9.74351 8.82413 15.4165 8.82413 19.0515M8.82413 9.74351L16.1087 13.4103L14.2201 20.4618M8.82413 9.74351L4.34134 12M8.82413 19.0515C7.47515 19.3336 7.78331 21.1039 6.66575 21.026C5.62501 20.9535 5.81791 19.124 4.77717 19.0515C3.65961 18.9736 3.72733 21.1933 2.61879 21.026C1.65734 20.8809 1 19.0515 1 19.0515M8.82413 19.0515C9.90333 19.3336 9.66967 21.026 10.7127 21.026C11.7558 21.026 11.5606 19.1241 12.6013 19.0516C13.7188 18.9737 13.6421 21.1039 14.7597 21.026C15.8004 20.9535 16.6483 19.0516 16.6483 19.0516M3.15838 20.4618L1.5396 13.4103L4.34134 12M4.34134 12V8.05114C4.34134 8.05114 6.85627 6.95783 8.55434 6.9229C10.3941 6.88505 13.1409 8.05114 13.1409 8.05114V11.7179" stroke="white" stroke-width="0.564121" stroke-linecap="round" stroke-linejoin="round"/>
<path d="M22.0437 8.33398H19.0759V19.8985H22.0437V15.1034H22.8531L25.8209 19.8985H29.0584L25.0115 13.9752L29.0584 8.33398H25.8209L22.0437 13.6931V8.33398Z" fill="white" stroke="white" stroke-width="0.564121" stroke-linecap="round" stroke-linejoin="round"/>
</svg>
