<svg width="243" height="214" viewBox="0 0 243 214" fill="none" xmlns="http://www.w3.org/2000/svg">
<path fill-rule="evenodd" clip-rule="evenodd" d="M163.774 212.657C170.748 210.005 181.633 204.181 189.51 198.886C198.934 192.552 211.881 180.47 218.329 171.995C229.911 156.772 235.969 141.288 239.451 118.014C241.792 102.364 241.959 98.3904 242.175 52.9648C242.405 4.65346 242.614 7.6859 238.786 3.85822C235.092 0.164031 237.277 0.330062 192.286 0.330058C148.831 0.330055 150.352 0.241386 146.763 2.97996C145.846 3.67899 144.522 5.2261 143.822 6.41756L142.548 8.58445L142.42 49.7456L142.292 90.9067L143.311 93.2759C144.508 96.0574 147.792 99.1573 150.273 99.8464C151.29 100.128 159.764 100.322 171.203 100.323L190.424 100.326L190.424 103.292C190.424 110.045 188.498 121.505 186.088 129.099C182.884 139.193 177.995 147.333 170.913 154.362C165.135 160.097 158.445 164.652 149.04 169.254C142.163 172.618 141.132 173.453 139.242 177.184C138.742 178.173 138.408 179.934 138.392 181.675C138.368 184.195 138.682 185.219 141.005 190.191C149.845 209.11 150.568 210.31 154.261 212.194C156.969 213.576 160.858 213.765 163.774 212.657ZM24.2923 213.002C26.9063 212.52 39.1978 206.505 45.8537 202.451C66.0463 190.153 81.8084 173.677 91.0321 155.226C97.7767 141.735 101.118 128.106 103.47 104.482C104.096 98.2036 104.275 88.8167 104.444 53.4402C104.677 4.59874 104.889 7.69155 101.055 3.8582C97.3616 0.164477 99.5441 0.33005 54.5798 0.330046C10.7527 0.330043 12.289 0.234752 8.72498 3.17237C7.7901 3.94309 6.47554 5.677 5.80339 7.02552L4.58174 9.47732L4.5921 50.3026C4.60249 90.3548 4.62089 91.1684 5.5633 93.2509C6.66751 95.6909 8.35188 97.5913 10.7136 99.062C12.3262 100.067 12.8328 100.096 32.6401 100.326L52.9157 100.562L52.7718 104.335C52.3997 114.082 50.0469 125.681 46.7792 133.875C43.4194 142.3 39.3955 148.445 33.2891 154.477C27.7318 159.967 22.0579 163.878 13.1517 168.359C4.6138 172.655 2.22756 174.635 1.2611 178.223C0.117266 182.471 0.719622 184.611 6.34912 196.313C9.49098 202.844 12.2791 207.986 13.3545 209.233C16.0865 212.401 20.0844 213.779 24.2923 213.002Z" fill="#4551BF"/>
</svg>
