<svg width="18" height="17" viewBox="0 0 18 17" fill="none" xmlns="http://www.w3.org/2000/svg">
<path d="M4.0561 16.8298V6.11189H0.423317V16.8298H4.0561ZM2.24018 4.64767C3.50699 4.64767 4.29553 3.82466 4.29553 2.79618C4.27192 1.7445 3.50704 0.944336 2.26422 0.944336C1.02159 0.944336 0.208984 1.74452 0.208984 2.79618C0.208984 3.82471 0.997322 4.64767 2.21646 4.64767H2.24007H2.24018ZM6.06684 16.8298H9.69962V10.8444C9.69962 10.5241 9.72322 10.2041 9.81916 9.97507C10.0818 9.33506 10.6795 8.67219 11.683 8.67219C12.9976 8.67219 13.5235 9.65506 13.5235 11.0959V16.8297H17.1561V10.6842C17.1561 7.39205 15.3638 5.86027 12.9737 5.86027C11.0139 5.86027 10.1535 6.93447 9.67545 7.66611H9.6997V6.11167H6.06692C6.11459 7.11738 6.06692 16.8295 6.06692 16.8295L6.06684 16.8298Z" fill="url(#paint0_linear_545_2101)"/>
<defs>
<linearGradient id="paint0_linear_545_2101" x1="0.479273" y1="8.7372" x2="14.5478" y2="8.7372" gradientUnits="userSpaceOnUse">
<stop stop-color="#C18BBD"/>
<stop offset="1" stop-color="#2F7CDE"/>
</linearGradient>
</defs>
</svg>
