<svg width="37" height="44" viewBox="0 0 37 44" fill="none" xmlns="http://www.w3.org/2000/svg">
<path d="M18.7352 1.0197L18.7343 1.01872C18.7334 1.01767 18.7323 1.01648 18.7312 1.01517C18.696 0.975375 18.5604 0.821818 18.3497 0.804115C18.104 0.783473 17.9444 0.953756 17.8932 1.01133L17.8885 1.01664L17.8839 1.02209C17.1873 1.8486 16.8898 3.00932 16.7579 4.35737L11.3479 3.03784C11.1247 2.94897 10.8226 2.90554 10.5608 3.13192C10.3092 3.34958 10.2516 3.69022 10.2353 3.90235L10.2314 3.95321L10.2355 4.00405L10.3684 5.65846L10.3718 5.7012L10.3808 5.74284C10.4605 6.11153 10.637 6.46639 10.9729 6.69057L16.0571 10.7465L15.8721 18.8235L1.70762 15.8974C1.49686 15.8411 1.15643 15.803 0.894981 16.0831C0.631276 16.3656 0.636438 16.7706 0.671193 17.0381L0.956965 19.653L0.988263 19.9394L1.20787 20.0773L15.6988 29.1767L15.5659 36.9056L15.5654 36.9355L15.5676 36.9653C15.7618 39.5586 16.5254 41.6525 17.9126 42.4398L17.9139 42.4405C18.2362 42.622 18.5512 42.7453 18.8989 42.7153C19.2402 42.6859 19.5422 42.5141 19.8484 42.2941L19.8487 42.2939C21.1024 41.3919 21.7606 39.3585 21.8868 36.8672L21.8883 36.8376L21.8871 36.8079L21.5724 29.0859L35.844 19.542L36.0603 19.3973L36.0848 19.1101L36.3089 16.4882C36.338 16.2201 36.3352 15.8132 36.064 15.538C35.7952 15.2652 35.4544 15.3158 35.2453 15.3792L21.1894 18.7375L21.2213 10.7484L25.7819 6.45463C26.1067 6.21723 26.2687 5.8592 26.3385 5.49997L26.3468 5.45718L26.3493 5.41341L26.4432 3.75549L26.4462 3.70312L26.4407 3.65102C26.4188 3.44148 26.3533 3.10236 26.0966 2.89285C25.8291 2.67441 25.5281 2.72883 25.3084 2.82402L19.9318 4.31017C19.7694 2.97147 19.4454 1.82212 18.7352 1.0197Z" fill="#002147" stroke="white" stroke-width="1.05335"/>
</svg>
