<svg width="20" height="15" viewBox="0 0 20 15" fill="none" xmlns="http://www.w3.org/2000/svg">
<path d="M19.8516 1.80862C19.1377 2.10989 18.3806 2.30764 17.6053 2.3953C18.4129 1.93419 19.0329 1.20401 19.3249 0.334003C18.5572 0.768001 17.7173 1.07378 16.8415 1.23813C16.128 0.514047 15.1117 0.0615234 13.9868 0.0615234C11.8269 0.0615234 10.0758 1.72974 10.0758 3.78727C10.0758 4.07933 10.1104 4.36366 10.177 4.63642C6.92674 4.48099 4.04503 2.99771 2.11607 0.743537C1.77949 1.29382 1.58663 1.9339 1.58663 2.61663C1.58663 3.90929 2.27713 5.04964 3.32646 5.71782C2.7054 5.69929 2.09801 5.53949 1.55499 5.25175C1.55476 5.26736 1.55476 5.28296 1.55476 5.29864C1.55476 7.10384 2.90284 8.60975 4.69189 8.95203C4.11598 9.10125 3.51189 9.12309 2.92578 9.01588C3.42341 10.4961 4.86777 11.5733 6.57907 11.6034C5.2406 12.6027 3.55424 13.1983 1.72201 13.1983C1.40629 13.1983 1.09503 13.1807 0.789062 13.1463C2.5198 14.2034 4.5755 14.8202 6.78407 14.8202C13.9777 14.8202 17.9114 9.14286 17.9114 4.21937C17.9114 4.05777 17.9076 3.89709 17.9 3.73733C18.6657 3.21003 19.3265 2.55691 19.8516 1.80862Z" fill="url(#paint0_linear_545_2105)"/>
<defs>
<linearGradient id="paint0_linear_545_2105" x1="1.09309" y1="7.30166" x2="16.9177" y2="7.30166" gradientUnits="userSpaceOnUse">
<stop stop-color="#C18BBD"/>
<stop offset="1" stop-color="#2F7CDE"/>
</linearGradient>
</defs>
</svg>
